Coordinates
version=1
nRows=29
nColumns=22
inDegrees=yes

Units are S.I. units (second, meters, Newtons, ...)
If the header above contains a line with 'inDegrees', this indicates whether rotational values are in degrees (yes) or radians (no).

endheader
time	pelvis_tilt	pelvis_list	pelvis_rotation	pelvis_tx	pelvis_ty	pelvis_tz	hip_flexion_r	hip_adduction_r	hip_rotation_r	knee_angle_r	ankle_angle_r	subtalar_angle_r	hip_flexion_l	hip_adduction_l	hip_rotation_l	knee_angle_l	ankle_angle_l	subtalar_angle_l	lumbar_extension	lumbar_bending	lumbar_rotation
      0.01000000	      0.45088604	     -2.08392657	     -6.36699667	     -1.27717826	      0.93559975	     -0.01202507	     -1.89773221	      3.25167572	     -0.24026648	     -9.54149723	      6.46391796	     -0.93557443	     -0.69903087	     -3.02550398	    -11.83099707	    -13.29179082	      9.69561587	     -0.76347088	     -4.69761810	     -1.62734300	      0.96974673
      0.02000000	      0.44887092	     -2.08423451	     -6.37641685	     -1.27711715	      0.93559454	     -0.01202932	     -1.89963101	      3.24937820	     -0.24211627	     -9.54037324	      6.46150835	     -0.93718193	     -0.70192208	     -3.02366452	    -11.83051124	    -13.29378548	      9.69595451	     -0.76388737	     -4.69620514	     -1.62276301	      0.96810345
      0.03000000	      0.44628457	     -2.08404630	     -6.38723713	     -1.27703348	      0.93559033	     -0.01203072	     -1.90293166	      3.24626920	     -0.24405431	     -9.53858558	      6.45792214	     -0.93949107	     -0.70661422	     -3.02125197	    -11.83209950	    -13.29438996	      9.69657073	     -0.76441227	     -4.69213050	     -1.61748248	      0.96655164
      0.04000000	      0.44000186	     -2.08270999	     -6.40534032	     -1.27690819	      0.93558557	     -0.01201401	     -1.91183712	      3.24266578	     -0.24450562	     -9.52109914	      6.43855469	     -0.95502622	     -0.72387689	     -3.01675205	    -11.85983818	    -13.26741111	      9.70180589	     -0.76806541	     -4.67853706	     -1.61415408	      0.97176406
      0.05000000	      0.43778463	     -2.08214669	     -6.41359716	     -1.27680115	      0.93558200	     -0.01200839	     -1.91671030	      3.24013016	     -0.24339038	     -9.52120427	      6.43730286	     -0.95709163	     -0.72940530	     -3.01465969	    -11.85989978	    -13.27044758	      9.70119089	     -0.76847345	     -4.67355811	     -1.61038557	      0.97174579
      0.06000000	      0.44024623	     -2.07655609	     -6.45057693	     -1.27666437	      0.93559475	     -0.01195293	     -1.94012433	      3.23276437	     -0.18948439	     -9.49484102	      6.42137149	     -0.99924274	     -0.76437619	     -3.00360809	    -11.89904353	    -13.23408098	      9.69371341	     -0.77761083	     -4.66983216	     -1.61605306	      1.00732167
      0.07000000	      0.43628958	     -2.07569919	     -6.45520446	     -1.27654883	      0.93558583	     -0.01194566	     -1.94401820	      3.23083655	     -0.19074548	     -9.49409196	      6.42235613	     -0.99988026	     -0.76933683	     -3.00210308	    -11.90064472	    -13.23427779	      9.69397885	     -0.77777670	     -4.66382277	     -1.61176872	      1.00480114
      0.08000000	      0.42363666	     -2.07352572	     -6.46179298	     -1.27641094	      0.93556671	     -0.01192844	     -1.94706737	      3.22938714	     -0.19060171	     -9.47763031	      6.42682668	     -1.00069636	     -0.77807368	     -2.99854528	    -11.91573753	    -13.20946471	      9.69859269	     -0.77881936	     -4.64540528	     -1.60927282	      0.99793067
      0.09000000	      0.41866812	     -2.07157954	     -6.46364091	     -1.27628968	      0.93555546	     -0.01191861	     -1.95004264	      3.22742424	     -0.18792438	     -9.47745406	      6.42675898	     -1.00036317	     -0.78282083	     -2.99611493	    -11.91713666	    -13.20752192	      9.69917049	     -0.77906753	     -4.63813273	     -1.60709584	      0.99753994
      0.10000000	      0.40322167	     -2.06574649	     -6.47158338	     -1.27614906	      0.93553231	     -0.01189942	     -1.94775569	      3.22243150	     -0.17621359	     -9.46500284	      6.42778186	     -0.99684827	     -0.79154773	     -2.98799438	    -11.92955400	    -13.17691526	      9.70455094	     -0.78039493	     -4.61596841	     -1.60792569	      0.99314423
      0.11000000	      0.39814075	     -2.06477651	     -6.47141559	     -1.27604955	      0.93552091	     -0.01188395	     -1.94873568	      3.22255110	     -0.17590172	     -9.46568107	      6.42773436	     -0.99677602	     -0.79318641	     -2.98786846	    -11.92957243	    -13.17753311	      9.70450249	     -0.78042459	     -4.61754706	     -1.60796302	      0.99326029
      0.12000000	      0.37999805	     -2.05193309	     -6.48778380	     -1.27591675	      0.93549420	     -0.01184795	     -1.93474624	      3.21077139	     -0.14433921	     -9.46872478	      6.43208539	     -0.98776309	     -0.80454843	     -2.97116562	    -11.94078237	    -13.13467230	      9.70688329	     -0.78327300	     -4.59188841	     -1.61922748	      0.99678647
      0.13000000	      0.37501216	     -2.05120257	     -6.48728599	     -1.27581419	      0.93548220	     -0.01183511	     -1.93568242	      3.21063892	     -0.14399056	     -9.46964797	      6.43211490	     -0.98769266	     -0.80633895	     -2.97103006	    -11.94080338	    -13.13557255	      9.70673640	     -0.78330483	     -4.59340709	     -1.61928541	      0.99708140
      0.14000000	      0.36452452	     -2.03519443	     -6.50326230	     -1.27571066	      0.93546092	     -0.01180037	     -1.91327633	      3.19441843	     -0.11140952	     -9.50270185	      6.45060820	     -0.97865977	     -0.81765369	     -2.95114768	    -11.94932535	    -13.10538124	      9.70051702	     -0.78624496	     -4.58284282	     -1.63787997	      1.01010446
      0.15000000	      0.35959337	     -2.03447950	     -6.50256504	     -1.27560583	      0.93544773	     -0.01178750	     -1.91417188	      3.19433540	     -0.11118613	     -9.50357770	      6.45070254	     -0.97861524	     -0.81950988	     -2.95109468	    -11.94943091	    -13.10626103	      9.70040944	     -0.78627004	     -4.58430229	     -1.63804562	      1.01037748
      0.16000000	      0.35609138	     -2.03275691	     -6.49411040	     -1.27548293	      0.93543344	     -0.01177796	     -1.91460073	      3.19392679	     -0.10714705	     -9.51187080	      6.45226073	     -0.97813586	     -0.82449343	     -2.95056021	    -11.95144387	    -13.10456818	      9.70066467	     -0.78640945	     -4.58079283	     -1.64213123	      1.01255371
      0.17000000	      0.35083173	     -2.01657707	     -6.50978484	     -1.27540212	      0.93541452	     -0.01174990	     -1.88625571	      3.17695630	     -0.08728513	     -9.56385944	      6.47654350	     -0.97308157	     -0.83891172	     -2.92941189	    -11.95327653	    -13.07541314	      9.70623028	     -0.78675865	     -4.58256175	     -1.66156631	      1.01618422
      0.18000000	      0.34696792	     -2.01471003	     -6.50225391	     -1.27528132	      0.93539895	     -0.01174856	     -1.88720582	      3.17656708	     -0.08535158	     -9.56906390	      6.47916792	     -0.97262958	     -0.84245171	     -2.92774286	    -11.95438330	    -13.07542720	      9.70588525	     -0.78685117	     -4.57981000	     -1.66491046	      1.02063506
      0.19000000	      0.34131200	     -1.99038899	     -6.51594673	     -1.27519962	      0.93537459	     -0.01173019	     -1.85736606	      3.15042356	     -0.07539508	     -9.62201842	      6.52861626	     -0.96696614	     -0.85355862	     -2.89737951	    -11.94767771	    -13.04874878	      9.70890929	     -0.78704079	     -4.57891447	     -1.69619523	      1.04685931
      0.20000000	      0.33805334	     -1.98866601	     -6.50978812	     -1.27507088	      0.93535933	     -0.01174635	     -1.86019756	      3.14911944	     -0.07410446	     -9.62616168	      6.53073152	     -0.96686862	     -0.85754697	     -2.89439818	    -11.94893516	    -13.05023983	      9.70803626	     -0.78716278	     -4.57386625	     -1.69539275	      1.04886644
      0.21000000	      0.33485803	     -1.98634759	     -6.50299294	     -1.27494688	      0.93534389	     -0.01176334	     -1.86221938	      3.14729133	     -0.07251839	     -9.63176540	      6.53475897	     -0.96682314	     -0.86165204	     -2.89097806	    -11.94950604	    -13.04983513	      9.70786524	     -0.78725574	     -4.56959852	     -1.69623280	      1.05177819
      0.22000000	      0.33075908	     -1.95770132	     -6.51007501	     -1.27482681	      0.93531725	     -0.01177201	     -1.84525673	      3.11537185	     -0.07567864	     -9.66706542	      6.61229369	     -0.96711948	     -0.87939309	     -2.85264930	    -11.93315091	    -13.01459831	      9.71163708	     -0.78896700	     -4.55998066	     -1.72928544	      1.07708769
      0.23000000	      0.32943975	     -1.95598742	     -6.50540378	     -1.27469814	      0.93530359	     -0.01179415	     -1.84914668	      3.11353934	     -0.07411864	     -9.67275005	      6.61323089	     -0.96741540	     -0.88409550	     -2.84922355	    -11.93317193	    -13.01821204	      9.71037333	     -0.78922554	     -4.55402175	     -1.72689587	      1.07818684
      0.24000000	      0.32905303	     -1.95382539	     -6.49939836	     -1.27456649	      0.93528996	     -0.01181571	     -1.85302692	      3.11134539	     -0.07213846	     -9.68042113	      6.61588729	     -0.96772284	     -0.88994572	     -2.84528463	    -11.93232137	    -13.02117282	      9.70985974	     -0.78958578	     -4.54708145	     -1.72567320	      1.08061391
      0.25000000	      0.33000511	     -1.95115248	     -6.49333507	     -1.27442917	      0.93527622	     -0.01183704	     -1.85716103	      3.10871466	     -0.06960430	     -9.69099360	      6.62017594	     -0.96795857	     -0.89740904	     -2.84040107	    -11.93015405	    -13.02428559	      9.71023225	     -0.79006555	     -4.53868877	     -1.72496603	      1.08394122
      0.26000000	      0.34396697	     -1.92764439	     -6.50227106	     -1.27433383	      0.93526795	     -0.01184857	     -1.84187723	      3.08102343	     -0.06440900	     -9.75861484	      6.68561034	     -0.96859072	     -0.92616121	     -2.80559063	    -11.89998453	    -13.00643117	      9.72433851	     -0.79764559	     -4.55084278	     -1.75180441	      1.10743048
      0.27000000	      0.34549496	     -1.92538281	     -6.49544061	     -1.27418244	      0.93525454	     -0.01187258	     -1.84822061	      3.07851768	     -0.06285605	     -9.76724127	      6.68788134	     -0.96877340	     -0.93441210	     -2.80148909	    -11.90054313	    -13.01074095	      9.72367586	     -0.79838390	     -4.53796906	     -1.74965934	      1.10926603
      0.28000000	      0.34877193	     -1.92270226	     -6.48823796	     -1.27403134	      0.93524054	     -0.01189651	     -1.85374659	      3.07541506	     -0.05989816	     -9.78102914	      6.69070012	     -0.96910673	     -0.94418108	     -2.79637662	    -11.89953074	    -13.01575956	      9.72406687	     -0.79924365	     -4.52556155	     -1.74824600	      1.11151555
      0.29000000	      0.36983932	     -1.90060533	     -6.49555527	     -1.27394401	      0.93524075	     -0.01191204	     -1.83472304	      3.04782086	     -0.05437085	     -9.87096356	      6.73270773	     -0.97433055	     -0.97498832	     -2.76449649	    -11.88059178	    -13.00854828	      9.73854676	     -0.80948658	     -4.54564314	     -1.77369190	      1.12206713
